<svg class="svgbody" xmlns="http://www.w3.org/2000/svg" viewBox="0 0 1920 1580">
<style>
        .svgbody { font-family:'Nunito Sans', sans-serif; font-size:13pt; background-color: white; }
        text.box {
                        font-size: 87%;
                    fill: white; }

        text.heading { fill: white; }
                        rect.heading {
                        stroke: none;
                        fill: white; }

        rect.heading { fill: #004457; stroke: none; }
        rect.box { fill: #439028; }

        rect.directory.heading,
        rect.productCatalogue.heading,
        rect.blobs.heading { fill: #77bbcf; }
        </style>
        <rect class="stosag heading" x="20" y="20" width="160" height="1540" rx="3" ry="3"/><text class="stosag heading" x="100" y="60" dominant-baseline="middle" text-anchor="middle"><tspan dy="0em" x="100">Stosag</tspan></text>
<rect class="stosag box" x="30" y="90" width="140" height="80" rx="3" ry="3"/><text class="stosag box" x="100" y="130" dominant-baseline="middle" text-anchor="middle"><tspan dy="-0.4em" x="100">AccessPass</tspan><tspan dy="1em" x="100">Histories</tspan></text>
<rect class="stosag box" x="30" y="180" width="140" height="80" rx="3" ry="3"/><text class="stosag box" x="100" y="220" dominant-baseline="middle" text-anchor="middle"><tspan dy="0em" x="100">SharedContainers</tspan></text>
<rect class="stosag box" x="30" y="270" width="140" height="80" rx="3" ry="3"/><text class="stosag box" x="100" y="310" dominant-baseline="middle" text-anchor="middle"><tspan dy="-0.4em" x="100">SharedContainer</tspan><tspan dy="1em" x="100">Histories</tspan></text>
<rect class="accounting heading" x="190" y="20" width="160" height="1540" rx="3" ry="3"/><text class="accounting heading" x="270" y="60" dominant-baseline="middle" text-anchor="middle"><tspan dy="0em" x="270">Accounting</tspan></text>
<rect class="accounting box" x="200" y="90" width="140" height="80" rx="3" ry="3"/><text class="accounting box" x="270" y="130" dominant-baseline="middle" text-anchor="middle"><tspan dy="0em" x="270">AccountCustomers</tspan></text>
<rect class="accounting box" x="200" y="180" width="140" height="80" rx="3" ry="3"/><text class="accounting box" x="270" y="220" dominant-baseline="middle" text-anchor="middle"><tspan dy="-0.4em" x="270">AccountingPeriod</tspan><tspan dy="1em" x="270">Locks</tspan></text>
<rect class="accounting box" x="200" y="270" width="140" height="80" rx="3" ry="3"/><text class="accounting box" x="270" y="310" dominant-baseline="middle" text-anchor="middle"><tspan dy="0em" x="270">Charges</tspan></text>
<rect class="accounting box" x="200" y="360" width="140" height="80" rx="3" ry="3"/><text class="accounting box" x="270" y="400" dominant-baseline="middle" text-anchor="middle"><tspan dy="0em" x="270">Contracts</tspan></text>
<rect class="accounting box" x="200" y="450" width="140" height="80" rx="3" ry="3"/><text class="accounting box" x="270" y="490" dominant-baseline="middle" text-anchor="middle"><tspan dy="0em" x="270">CreditNotes</tspan></text>
<rect class="accounting box" x="200" y="540" width="140" height="80" rx="3" ry="3"/><text class="accounting box" x="270" y="580" dominant-baseline="middle" text-anchor="middle"><tspan dy="-0.4em" x="270">CustomerHome</tspan><tspan dy="1em" x="270">Caches</tspan></text>
<rect class="accounting box" x="200" y="630" width="140" height="80" rx="3" ry="3"/><text class="accounting box" x="270" y="670" dominant-baseline="middle" text-anchor="middle"><tspan dy="0em" x="270">GlBatches</tspan></text>
<rect class="accounting box" x="200" y="720" width="140" height="80" rx="3" ry="3"/><text class="accounting box" x="270" y="760" dominant-baseline="middle" text-anchor="middle"><tspan dy="0em" x="270">GlExports</tspan></text>
<rect class="accounting box" x="200" y="810" width="140" height="80" rx="3" ry="3"/><text class="accounting box" x="270" y="850" dominant-baseline="middle" text-anchor="middle"><tspan dy="0em" x="270">GlJournals</tspan></text>
<rect class="accounting box" x="200" y="900" width="140" height="80" rx="3" ry="3"/><text class="accounting box" x="270" y="940" dominant-baseline="middle" text-anchor="middle"><tspan dy="0em" x="270">Invoices</tspan></text>
<rect class="accounting box" x="200" y="990" width="140" height="80" rx="3" ry="3"/><text class="accounting box" x="270" y="1030" dominant-baseline="middle" text-anchor="middle"><tspan dy="0em" x="270">Lodgements</tspan></text>
<rect class="accounting box" x="200" y="1080" width="140" height="80" rx="3" ry="3"/><text class="accounting box" x="270" y="1120" dominant-baseline="middle" text-anchor="middle"><tspan dy="0em" x="270">MasterAccounts</tspan></text>
<rect class="accounting box" x="200" y="1170" width="140" height="80" rx="3" ry="3"/><text class="accounting box" x="270" y="1210" dominant-baseline="middle" text-anchor="middle"><tspan dy="-0.4em" x="270">OrderCombination</tspan><tspan dy="1em" x="270">Groupings</tspan></text>
<rect class="accounting box" x="200" y="1260" width="140" height="80" rx="3" ry="3"/><text class="accounting box" x="270" y="1300" dominant-baseline="middle" text-anchor="middle"><tspan dy="0em" x="270">Payments</tspan></text>
<rect class="accounting box" x="200" y="1350" width="140" height="80" rx="3" ry="3"/><text class="accounting box" x="270" y="1390" dominant-baseline="middle" text-anchor="middle"><tspan dy="-0.4em" x="270">PurchaseOrder</tspan><tspan dy="1em" x="270">NumberChains</tspan></text>
<rect class="accounting box" x="200" y="1440" width="140" height="80" rx="3" ry="3"/><text class="accounting box" x="270" y="1480" dominant-baseline="middle" text-anchor="middle"><tspan dy="0em" x="270">SupplierPayments</tspan></text>
<rect class="purchasing heading" x="360" y="20" width="160" height="1540" rx="3" ry="3"/><text class="purchasing heading" x="440" y="60" dominant-baseline="middle" text-anchor="middle"><tspan dy="0em" x="440">Purchasing</tspan></text>
<rect class="purchasing box" x="370" y="90" width="140" height="80" rx="3" ry="3"/><text class="purchasing box" x="440" y="130" dominant-baseline="middle" text-anchor="middle"><tspan dy="0em" x="440">AppliedCosts</tspan></text>
<rect class="purchasing box" x="370" y="180" width="140" height="80" rx="3" ry="3"/><text class="purchasing box" x="440" y="220" dominant-baseline="middle" text-anchor="middle"><tspan dy="0em" x="440">SupplierBills</tspan></text>
<rect class="municipal heading" x="530" y="20" width="160" height="1540" rx="3" ry="3"/><text class="municipal heading" x="610" y="60" dominant-baseline="middle" text-anchor="middle"><tspan dy="0em" x="610">Municipal</tspan></text>
<rect class="municipal box" x="540" y="90" width="140" height="80" rx="3" ry="3"/><text class="municipal box" x="610" y="130" dominant-baseline="middle" text-anchor="middle"><tspan dy="-0.4em" x="610">BulkyWaste</tspan><tspan dy="1em" x="610">Jobs</tspan></text>
<rect class="municipal box" x="540" y="180" width="140" height="80" rx="3" ry="3"/><text class="municipal box" x="610" y="220" dominant-baseline="middle" text-anchor="middle"><tspan dy="-0.4em" x="610">MunicipalAccount</tspan><tspan dy="1em" x="610">CalendarEvents</tspan></text>
<rect class="municipal box" x="540" y="270" width="140" height="80" rx="3" ry="3"/><text class="municipal box" x="610" y="310" dominant-baseline="middle" text-anchor="middle"><tspan dy="-0.4em" x="610">MunicipalAccount</tspan><tspan dy="1em" x="610">ChangeBatches</tspan></text>
<rect class="municipal box" x="540" y="360" width="140" height="80" rx="3" ry="3"/><text class="municipal box" x="610" y="400" dominant-baseline="middle" text-anchor="middle"><tspan dy="-0.4em" x="610">MunicipalAccount</tspan><tspan dy="1em" x="610">ServicePackages</tspan></text>
<rect class="municipal box" x="540" y="450" width="140" height="80" rx="3" ry="3"/><text class="municipal box" x="610" y="490" dominant-baseline="middle" text-anchor="middle"><tspan dy="-0.4em" x="610">MunicipalEvent</tspan><tspan dy="1em" x="610">Details</tspan></text>
<rect class="municipal box" x="540" y="540" width="140" height="80" rx="3" ry="3"/><text class="municipal box" x="610" y="580" dominant-baseline="middle" text-anchor="middle"><tspan dy="-0.4em" x="610">MunicipalFunctional</tspan><tspan dy="1em" x="610">Ids</tspan></text>
<rect class="municipal box" x="540" y="630" width="140" height="80" rx="3" ry="3"/><text class="municipal box" x="610" y="670" dominant-baseline="middle" text-anchor="middle"><tspan dy="-0.4em" x="610">RecyclingCentre</tspan><tspan dy="1em" x="610">ServiceStatuses</tspan></text>
<rect class="comms heading" x="700" y="20" width="160" height="1540" rx="3" ry="3"/><text class="comms heading" x="780" y="60" dominant-baseline="middle" text-anchor="middle"><tspan dy="0em" x="780">Comms</tspan></text>
<rect class="comms box" x="710" y="90" width="140" height="80" rx="3" ry="3"/><text class="comms box" x="780" y="130" dominant-baseline="middle" text-anchor="middle"><tspan dy="0em" x="780">Communications</tspan></text>
<rect class="comms box" x="710" y="180" width="140" height="80" rx="3" ry="3"/><text class="comms box" x="780" y="220" dominant-baseline="middle" text-anchor="middle"><tspan dy="0em" x="780">Notifications</tspan></text>
<rect class="directory heading" x="870" y="20" width="160" height="1540" rx="3" ry="3"/><text class="directory heading" x="950" y="60" dominant-baseline="middle" text-anchor="middle"><tspan dy="0em" x="950">Directory</tspan></text>
<rect class="directory box" x="880" y="90" width="140" height="80" rx="3" ry="3"/><text class="directory box" x="950" y="130" dominant-baseline="middle" text-anchor="middle"><tspan dy="0em" x="950">Contacts</tspan></text>
<rect class="directory box" x="880" y="180" width="140" height="80" rx="3" ry="3"/><text class="directory box" x="950" y="220" dominant-baseline="middle" text-anchor="middle"><tspan dy="0em" x="950">Containers</tspan></text>
<rect class="directory box" x="880" y="270" width="140" height="80" rx="3" ry="3"/><text class="directory box" x="950" y="310" dominant-baseline="middle" text-anchor="middle"><tspan dy="0em" x="950">Customers</tspan></text>
<rect class="directory box" x="880" y="360" width="140" height="80" rx="3" ry="3"/><text class="directory box" x="950" y="400" dominant-baseline="middle" text-anchor="middle"><tspan dy="0em" x="950">Drivers</tspan></text>
<rect class="directory box" x="880" y="450" width="140" height="80" rx="3" ry="3"/><text class="directory box" x="950" y="490" dominant-baseline="middle" text-anchor="middle"><tspan dy="0em" x="950">Locations</tspan></text>
<rect class="directory box" x="880" y="540" width="140" height="80" rx="3" ry="3"/><text class="directory box" x="950" y="580" dominant-baseline="middle" text-anchor="middle"><tspan dy="0em" x="950">SaveLocations</tspan></text>
<rect class="directory box" x="880" y="630" width="140" height="80" rx="3" ry="3"/><text class="directory box" x="950" y="670" dominant-baseline="middle" text-anchor="middle"><tspan dy="0em" x="950">Sites</tspan></text>
<rect class="directory box" x="880" y="720" width="140" height="80" rx="3" ry="3"/><text class="directory box" x="950" y="760" dominant-baseline="middle" text-anchor="middle"><tspan dy="0em" x="950">Suppliers</tspan></text>
<rect class="directory box" x="880" y="810" width="140" height="80" rx="3" ry="3"/><text class="directory box" x="950" y="850" dominant-baseline="middle" text-anchor="middle"><tspan dy="0em" x="950">SupplierSites</tspan></text>
<rect class="directory box" x="880" y="900" width="140" height="80" rx="3" ry="3"/><text class="directory box" x="950" y="940" dominant-baseline="middle" text-anchor="middle"><tspan dy="0em" x="950">Users</tspan></text>
<rect class="productCatalogue heading" x="1040" y="20" width="160" height="1540" rx="3" ry="3"/><text class="productCatalogue heading" x="1120" y="60" dominant-baseline="middle" text-anchor="middle"><tspan dy="0em" x="1120">ProductCatalogue</tspan></text>
<rect class="productCatalogue box" x="1050" y="90" width="140" height="80" rx="3" ry="3"/><text class="productCatalogue box" x="1120" y="130" dominant-baseline="middle" text-anchor="middle"><tspan dy="0em" x="1120">CostAgreements</tspan></text>
<rect class="productCatalogue box" x="1050" y="180" width="140" height="80" rx="3" ry="3"/><text class="productCatalogue box" x="1120" y="220" dominant-baseline="middle" text-anchor="middle"><tspan dy="0em" x="1120">ServiceAgreements</tspan></text>
<rect class="blobs heading" x="1210" y="20" width="160" height="1540" rx="3" ry="3"/><text class="blobs heading" x="1290" y="60" dominant-baseline="middle" text-anchor="middle"><tspan dy="0em" x="1290">Blobs</tspan></text>
<rect class="blobs box" x="1220" y="90" width="140" height="80" rx="3" ry="3"/><text class="blobs box" x="1290" y="130" dominant-baseline="middle" text-anchor="middle"><tspan dy="0em" x="1290">CustomerBlobs</tspan></text>
<rect class="blobs box" x="1220" y="180" width="140" height="80" rx="3" ry="3"/><text class="blobs box" x="1290" y="220" dominant-baseline="middle" text-anchor="middle"><tspan dy="-0.4em" x="1290">CustomerReport</tspan><tspan dy="1em" x="1290">Blobs</tspan></text>
<rect class="blobs box" x="1220" y="270" width="140" height="80" rx="3" ry="3"/><text class="blobs box" x="1290" y="310" dominant-baseline="middle" text-anchor="middle"><tspan dy="-1em" x="1290">CustomerSite</tspan><tspan dy="1em" x="1290">HealthAnd</tspan><tspan dy="1em" x="1290">SafetyBlobs</tspan></text>
<rect class="transport heading" x="1380" y="20" width="160" height="1540" rx="3" ry="3"/><text class="transport heading" x="1460" y="60" dominant-baseline="middle" text-anchor="middle"><tspan dy="0em" x="1460">Transport</tspan></text>
<rect class="transport box" x="1390" y="90" width="140" height="80" rx="3" ry="3"/><text class="transport box" x="1460" y="130" dominant-baseline="middle" text-anchor="middle"><tspan dy="0em" x="1460">DeleteJobs</tspan></text>
<rect class="transport box" x="1390" y="180" width="140" height="80" rx="3" ry="3"/><text class="transport box" x="1460" y="220" dominant-baseline="middle" text-anchor="middle"><tspan dy="0em" x="1460">Jobs</tspan></text>
<rect class="transport box" x="1390" y="270" width="140" height="80" rx="3" ry="3"/><text class="transport box" x="1460" y="310" dominant-baseline="middle" text-anchor="middle"><tspan dy="0em" x="1460">LiftEvents</tspan></text>
<rect class="transport box" x="1390" y="360" width="140" height="80" rx="3" ry="3"/><text class="transport box" x="1460" y="400" dominant-baseline="middle" text-anchor="middle"><tspan dy="-0.4em" x="1460">OneOff</tspan><tspan dy="1em" x="1460">Actions</tspan></text>
<rect class="transport box" x="1390" y="450" width="140" height="80" rx="3" ry="3"/><text class="transport box" x="1460" y="490" dominant-baseline="middle" text-anchor="middle"><tspan dy="0em" x="1460">Orders</tspan></text>
<rect class="transport box" x="1390" y="540" width="140" height="80" rx="3" ry="3"/><text class="transport box" x="1460" y="580" dominant-baseline="middle" text-anchor="middle"><tspan dy="0em" x="1460">Routes</tspan></text>
<rect class="transport box" x="1390" y="630" width="140" height="80" rx="3" ry="3"/><text class="transport box" x="1460" y="670" dominant-baseline="middle" text-anchor="middle"><tspan dy="0em" x="1460">RouteAssignments</tspan></text>
<rect class="transport box" x="1390" y="720" width="140" height="80" rx="3" ry="3"/><text class="transport box" x="1460" y="760" dominant-baseline="middle" text-anchor="middle"><tspan dy="-0.4em" x="1460">RouteBuild</tspan><tspan dy="1em" x="1460">ScheduleLogs</tspan></text>
<rect class="transport box" x="1390" y="810" width="140" height="80" rx="3" ry="3"/><text class="transport box" x="1460" y="850" dominant-baseline="middle" text-anchor="middle"><tspan dy="0em" x="1460">RouteTemplates</tspan></text>
<rect class="transport box" x="1390" y="900" width="140" height="80" rx="3" ry="3"/><text class="transport box" x="1460" y="940" dominant-baseline="middle" text-anchor="middle"><tspan dy="0em" x="1460">RouteVisits</tspan></text>
<rect class="transport box" x="1390" y="990" width="140" height="80" rx="3" ry="3"/><text class="transport box" x="1460" y="1030" dominant-baseline="middle" text-anchor="middle"><tspan dy="-0.4em" x="1460">RouteVisit</tspan><tspan dy="1em" x="1460">Jobs</tspan></text>
<rect class="transport box" x="1390" y="1080" width="140" height="80" rx="3" ry="3"/><text class="transport box" x="1460" y="1120" dominant-baseline="middle" text-anchor="middle"><tspan dy="-0.4em" x="1460">RouteVisit</tspan><tspan dy="1em" x="1460">Prices</tspan></text>
<rect class="transport box" x="1390" y="1170" width="140" height="80" rx="3" ry="3"/><text class="transport box" x="1460" y="1210" dominant-baseline="middle" text-anchor="middle"><tspan dy="0em" x="1460">Schedules</tspan></text>
<rect class="fleet heading" x="1550" y="20" width="160" height="1540" rx="3" ry="3"/><text class="fleet heading" x="1630" y="60" dominant-baseline="middle" text-anchor="middle"><tspan dy="0em" x="1630">Fleet</tspan></text>
<rect class="fleet box" x="1560" y="90" width="140" height="80" rx="3" ry="3"/><text class="fleet box" x="1630" y="130" dominant-baseline="middle" text-anchor="middle"><tspan dy="0em" x="1630">ExternalVehicles</tspan></text>
<rect class="fleet box" x="1560" y="180" width="140" height="80" rx="3" ry="3"/><text class="fleet box" x="1630" y="220" dominant-baseline="middle" text-anchor="middle"><tspan dy="0em" x="1630">Trailers</tspan></text>
<rect class="fleet box" x="1560" y="270" width="140" height="80" rx="3" ry="3"/><text class="fleet box" x="1630" y="310" dominant-baseline="middle" text-anchor="middle"><tspan dy="0em" x="1630">Vehicles</tspan></text>
<rect class="fleet box" x="1560" y="360" width="140" height="80" rx="3" ry="3"/><text class="fleet box" x="1630" y="400" dominant-baseline="middle" text-anchor="middle"><tspan dy="0em" x="1630">VehicleEvents</tspan></text>
<rect class="fleet box" x="1560" y="450" width="140" height="80" rx="3" ry="3"/><text class="fleet box" x="1630" y="490" dominant-baseline="middle" text-anchor="middle"><tspan dy="-0.4em" x="1630">VehicleEvent</tspan><tspan dy="1em" x="1630">GeoSummaries</tspan></text>
<rect class="fleet box" x="1560" y="540" width="140" height="80" rx="3" ry="3"/><text class="fleet box" x="1630" y="580" dominant-baseline="middle" text-anchor="middle"><tspan dy="0em" x="1630">VehicleTrails</tspan></text>
<rect class="scale heading" x="1720" y="20" width="160" height="1540" rx="3" ry="3"/><text class="scale heading" x="1800" y="60" dominant-baseline="middle" text-anchor="middle"><tspan dy="0em" x="1800">Scale</tspan></text>
<rect class="scale box" x="1730" y="90" width="140" height="80" rx="3" ry="3"/><text class="scale box" x="1800" y="130" dominant-baseline="middle" text-anchor="middle"><tspan dy="0em" x="1800">Weighings</tspan></text>
</svg>

