<svg class="svgbody" xmlns="http://www.w3.org/2000/svg" viewBox="0 0 1920 1490">
<style>
.svgbody { font-family:'Nunito Sans', sans-serif; font-size:13pt; background-color: white; }
text.box {
                font-size: 87%;
            fill: white; }

text.heading { fill: white; }
                rect.heading {
                stroke: none;
                fill: white; }

rect.heading { fill: #004457; stroke: none; }
rect.box { fill: #439028; }

rect.directory.heading,
rect.productCatalogue.heading,
rect.blobs.heading { fill: #77bbcf; }
</style>
<rect class="erp heading" x="20" y="20" width="160" height="1450" rx="3" ry="3"/><text class="erp heading" x="100" y="60" dominant-baseline="middle" text-anchor="middle"><tspan dy="0em" x="100">Erp</tspan></text>
<rect class="erp box" x="30" y="90" width="140" height="80" rx="3" ry="3"/><text class="erp box" x="100" y="130" dominant-baseline="middle" text-anchor="middle"><tspan dy="0em" x="100">Api</tspan></text>
<rect class="accounting heading" x="190" y="20" width="160" height="1450" rx="3" ry="3"/><text class="accounting heading" x="270" y="60" dominant-baseline="middle" text-anchor="middle"><tspan dy="0em" x="270">Accounting</tspan></text>
<rect class="accounting box" x="200" y="90" width="140" height="80" rx="3" ry="3"/><text class="accounting box" x="270" y="130" dominant-baseline="middle" text-anchor="middle"><tspan dy="0em" x="270">AccountCustomers</tspan></text>
<rect class="accounting box" x="200" y="180" width="140" height="80" rx="3" ry="3"/><text class="accounting box" x="270" y="220" dominant-baseline="middle" text-anchor="middle"><tspan dy="-0.4em" x="270">AccountingPeriod</tspan><tspan dy="1em" x="270">Locks</tspan></text>
<rect class="accounting box" x="200" y="270" width="140" height="80" rx="3" ry="3"/><text class="accounting box" x="270" y="310" dominant-baseline="middle" text-anchor="middle"><tspan dy="0em" x="270">Charges</tspan></text>
<rect class="accounting box" x="200" y="360" width="140" height="80" rx="3" ry="3"/><text class="accounting box" x="270" y="400" dominant-baseline="middle" text-anchor="middle"><tspan dy="0em" x="270">Contracts</tspan></text>
<rect class="accounting box" x="200" y="450" width="140" height="80" rx="3" ry="3"/><text class="accounting box" x="270" y="490" dominant-baseline="middle" text-anchor="middle"><tspan dy="0em" x="270">CreditNotes</tspan></text>
<rect class="accounting box" x="200" y="540" width="140" height="80" rx="3" ry="3"/><text class="accounting box" x="270" y="580" dominant-baseline="middle" text-anchor="middle"><tspan dy="0em" x="270">GlBatches</tspan></text>
<rect class="accounting box" x="200" y="630" width="140" height="80" rx="3" ry="3"/><text class="accounting box" x="270" y="670" dominant-baseline="middle" text-anchor="middle"><tspan dy="0em" x="270">GlExports</tspan></text>
<rect class="accounting box" x="200" y="720" width="140" height="80" rx="3" ry="3"/><text class="accounting box" x="270" y="760" dominant-baseline="middle" text-anchor="middle"><tspan dy="0em" x="270">GlJournals</tspan></text>
<rect class="accounting box" x="200" y="810" width="140" height="80" rx="3" ry="3"/><text class="accounting box" x="270" y="850" dominant-baseline="middle" text-anchor="middle"><tspan dy="0em" x="270">Invoices</tspan></text>
<rect class="accounting box" x="200" y="900" width="140" height="80" rx="3" ry="3"/><text class="accounting box" x="270" y="940" dominant-baseline="middle" text-anchor="middle"><tspan dy="0em" x="270">Lodgements</tspan></text>
<rect class="accounting box" x="200" y="990" width="140" height="80" rx="3" ry="3"/><text class="accounting box" x="270" y="1030" dominant-baseline="middle" text-anchor="middle"><tspan dy="0em" x="270">MasterAccounts</tspan></text>
<rect class="accounting box" x="200" y="1080" width="140" height="80" rx="3" ry="3"/><text class="accounting box" x="270" y="1120" dominant-baseline="middle" text-anchor="middle"><tspan dy="-0.4em" x="270">OrderCombination</tspan><tspan dy="1em" x="270">Groupings</tspan></text>
<rect class="accounting box" x="200" y="1170" width="140" height="80" rx="3" ry="3"/><text class="accounting box" x="270" y="1210" dominant-baseline="middle" text-anchor="middle"><tspan dy="0em" x="270">Payments</tspan></text>
<rect class="accounting box" x="200" y="1260" width="140" height="80" rx="3" ry="3"/><text class="accounting box" x="270" y="1300" dominant-baseline="middle" text-anchor="middle"><tspan dy="-0.4em" x="270">PurchaseOrder</tspan><tspan dy="1em" x="270">NumberChains</tspan></text>
<rect class="accounting box" x="200" y="1350" width="140" height="80" rx="3" ry="3"/><text class="accounting box" x="270" y="1390" dominant-baseline="middle" text-anchor="middle"><tspan dy="0em" x="270">SupplierPayments</tspan></text>
<rect class="purchasing heading" x="360" y="20" width="160" height="1450" rx="3" ry="3"/><text class="purchasing heading" x="440" y="60" dominant-baseline="middle" text-anchor="middle"><tspan dy="0em" x="440">Purchasing</tspan></text>
<rect class="purchasing box" x="370" y="90" width="140" height="80" rx="3" ry="3"/><text class="purchasing box" x="440" y="130" dominant-baseline="middle" text-anchor="middle"><tspan dy="0em" x="440">AppliedCosts</tspan></text>
<rect class="purchasing box" x="370" y="180" width="140" height="80" rx="3" ry="3"/><text class="purchasing box" x="440" y="220" dominant-baseline="middle" text-anchor="middle"><tspan dy="0em" x="440">SupplierBills</tspan></text>
<rect class="comms heading" x="530" y="20" width="160" height="1450" rx="3" ry="3"/><text class="comms heading" x="610" y="60" dominant-baseline="middle" text-anchor="middle"><tspan dy="0em" x="610">Comms</tspan></text>
<rect class="comms box" x="540" y="90" width="140" height="80" rx="3" ry="3"/><text class="comms box" x="610" y="130" dominant-baseline="middle" text-anchor="middle"><tspan dy="0em" x="610">Communications</tspan></text>
<rect class="comms box" x="540" y="180" width="140" height="80" rx="3" ry="3"/><text class="comms box" x="610" y="220" dominant-baseline="middle" text-anchor="middle"><tspan dy="0em" x="610">Notifications</tspan></text>
<rect class="directory heading" x="700" y="20" width="160" height="1450" rx="3" ry="3"/><text class="directory heading" x="780" y="60" dominant-baseline="middle" text-anchor="middle"><tspan dy="0em" x="780">Directory</tspan></text>
<rect class="directory box" x="710" y="90" width="140" height="80" rx="3" ry="3"/><text class="directory box" x="780" y="130" dominant-baseline="middle" text-anchor="middle"><tspan dy="0em" x="780">Contacts</tspan></text>
<rect class="directory box" x="710" y="180" width="140" height="80" rx="3" ry="3"/><text class="directory box" x="780" y="220" dominant-baseline="middle" text-anchor="middle"><tspan dy="0em" x="780">Containers</tspan></text>
<rect class="directory box" x="710" y="270" width="140" height="80" rx="3" ry="3"/><text class="directory box" x="780" y="310" dominant-baseline="middle" text-anchor="middle"><tspan dy="0em" x="780">Customers</tspan></text>
<rect class="directory box" x="710" y="360" width="140" height="80" rx="3" ry="3"/><text class="directory box" x="780" y="400" dominant-baseline="middle" text-anchor="middle"><tspan dy="-0.4em" x="780">CustomerHome</tspan><tspan dy="1em" x="780">Caches</tspan></text>
<rect class="directory box" x="710" y="450" width="140" height="80" rx="3" ry="3"/><text class="directory box" x="780" y="490" dominant-baseline="middle" text-anchor="middle"><tspan dy="0em" x="780">Drivers</tspan></text>
<rect class="directory box" x="710" y="540" width="140" height="80" rx="3" ry="3"/><text class="directory box" x="780" y="580" dominant-baseline="middle" text-anchor="middle"><tspan dy="0em" x="780">Locations</tspan></text>
<rect class="directory box" x="710" y="630" width="140" height="80" rx="3" ry="3"/><text class="directory box" x="780" y="670" dominant-baseline="middle" text-anchor="middle"><tspan dy="0em" x="780">Sites</tspan></text>
<rect class="directory box" x="710" y="720" width="140" height="80" rx="3" ry="3"/><text class="directory box" x="780" y="760" dominant-baseline="middle" text-anchor="middle"><tspan dy="0em" x="780">Suppliers</tspan></text>
<rect class="directory box" x="710" y="810" width="140" height="80" rx="3" ry="3"/><text class="directory box" x="780" y="850" dominant-baseline="middle" text-anchor="middle"><tspan dy="0em" x="780">SupplierSites</tspan></text>
<rect class="directory box" x="710" y="900" width="140" height="80" rx="3" ry="3"/><text class="directory box" x="780" y="940" dominant-baseline="middle" text-anchor="middle"><tspan dy="0em" x="780">Users</tspan></text>
<rect class="productCatalogue heading" x="870" y="20" width="160" height="1450" rx="3" ry="3"/><text class="productCatalogue heading" x="950" y="60" dominant-baseline="middle" text-anchor="middle"><tspan dy="0em" x="950">ProductCatalogue</tspan></text>
<rect class="productCatalogue box" x="880" y="90" width="140" height="80" rx="3" ry="3"/><text class="productCatalogue box" x="950" y="130" dominant-baseline="middle" text-anchor="middle"><tspan dy="0em" x="950">CostAgreements</tspan></text>
<rect class="productCatalogue box" x="880" y="180" width="140" height="80" rx="3" ry="3"/><text class="productCatalogue box" x="950" y="220" dominant-baseline="middle" text-anchor="middle"><tspan dy="0em" x="950">ServiceAgreements</tspan></text>
<rect class="blobs heading" x="1040" y="20" width="160" height="1450" rx="3" ry="3"/><text class="blobs heading" x="1120" y="60" dominant-baseline="middle" text-anchor="middle"><tspan dy="0em" x="1120">Blobs</tspan></text>
<rect class="blobs box" x="1050" y="90" width="140" height="80" rx="3" ry="3"/><text class="blobs box" x="1120" y="130" dominant-baseline="middle" text-anchor="middle"><tspan dy="0em" x="1120">CustomerBlobs</tspan></text>
<rect class="blobs box" x="1050" y="180" width="140" height="80" rx="3" ry="3"/><text class="blobs box" x="1120" y="220" dominant-baseline="middle" text-anchor="middle"><tspan dy="-0.4em" x="1120">CustomerReport</tspan><tspan dy="1em" x="1120">Blobs</tspan></text>
<rect class="blobs box" x="1050" y="270" width="140" height="80" rx="3" ry="3"/><text class="blobs box" x="1120" y="310" dominant-baseline="middle" text-anchor="middle"><tspan dy="-1em" x="1120">CustomerSite</tspan><tspan dy="1em" x="1120">HealthAnd</tspan><tspan dy="1em" x="1120">SafetyBlobs</tspan></text>
<rect class="transport heading" x="1210" y="20" width="160" height="1450" rx="3" ry="3"/><text class="transport heading" x="1290" y="60" dominant-baseline="middle" text-anchor="middle"><tspan dy="0em" x="1290">Transport</tspan></text>
<rect class="transport box" x="1220" y="90" width="140" height="80" rx="3" ry="3"/><text class="transport box" x="1290" y="130" dominant-baseline="middle" text-anchor="middle"><tspan dy="0em" x="1290">DeleteJobs</tspan></text>
<rect class="transport box" x="1220" y="180" width="140" height="80" rx="3" ry="3"/><text class="transport box" x="1290" y="220" dominant-baseline="middle" text-anchor="middle"><tspan dy="0em" x="1290">Jobs</tspan></text>
<rect class="transport box" x="1220" y="270" width="140" height="80" rx="3" ry="3"/><text class="transport box" x="1290" y="310" dominant-baseline="middle" text-anchor="middle"><tspan dy="0em" x="1290">LiftEvents</tspan></text>
<rect class="transport box" x="1220" y="360" width="140" height="80" rx="3" ry="3"/><text class="transport box" x="1290" y="400" dominant-baseline="middle" text-anchor="middle"><tspan dy="-0.4em" x="1290">OneOff</tspan><tspan dy="1em" x="1290">Actions</tspan></text>
<rect class="transport box" x="1220" y="450" width="140" height="80" rx="3" ry="3"/><text class="transport box" x="1290" y="490" dominant-baseline="middle" text-anchor="middle"><tspan dy="0em" x="1290">Orders</tspan></text>
<rect class="transport box" x="1220" y="540" width="140" height="80" rx="3" ry="3"/><text class="transport box" x="1290" y="580" dominant-baseline="middle" text-anchor="middle"><tspan dy="0em" x="1290">Routes</tspan></text>
<rect class="transport box" x="1220" y="630" width="140" height="80" rx="3" ry="3"/><text class="transport box" x="1290" y="670" dominant-baseline="middle" text-anchor="middle"><tspan dy="0em" x="1290">RouteAssignments</tspan></text>
<rect class="transport box" x="1220" y="720" width="140" height="80" rx="3" ry="3"/><text class="transport box" x="1290" y="760" dominant-baseline="middle" text-anchor="middle"><tspan dy="-0.4em" x="1290">RouteBuild</tspan><tspan dy="1em" x="1290">ScheduleLogs</tspan></text>
<rect class="transport box" x="1220" y="810" width="140" height="80" rx="3" ry="3"/><text class="transport box" x="1290" y="850" dominant-baseline="middle" text-anchor="middle"><tspan dy="0em" x="1290">RouteTemplates</tspan></text>
<rect class="transport box" x="1220" y="900" width="140" height="80" rx="3" ry="3"/><text class="transport box" x="1290" y="940" dominant-baseline="middle" text-anchor="middle"><tspan dy="0em" x="1290">RouteVisits</tspan></text>
<rect class="transport box" x="1220" y="990" width="140" height="80" rx="3" ry="3"/><text class="transport box" x="1290" y="1030" dominant-baseline="middle" text-anchor="middle"><tspan dy="-0.4em" x="1290">RouteVisit</tspan><tspan dy="1em" x="1290">Jobs</tspan></text>
<rect class="transport box" x="1220" y="1080" width="140" height="80" rx="3" ry="3"/><text class="transport box" x="1290" y="1120" dominant-baseline="middle" text-anchor="middle"><tspan dy="-0.4em" x="1290">RouteVisit</tspan><tspan dy="1em" x="1290">Prices</tspan></text>
<rect class="transport box" x="1220" y="1170" width="140" height="80" rx="3" ry="3"/><text class="transport box" x="1290" y="1210" dominant-baseline="middle" text-anchor="middle"><tspan dy="0em" x="1290">Schedules</tspan></text>
<rect class="fleet heading" x="1380" y="20" width="160" height="1450" rx="3" ry="3"/><text class="fleet heading" x="1460" y="60" dominant-baseline="middle" text-anchor="middle"><tspan dy="0em" x="1460">Fleet</tspan></text>
<rect class="fleet box" x="1390" y="90" width="140" height="80" rx="3" ry="3"/><text class="fleet box" x="1460" y="130" dominant-baseline="middle" text-anchor="middle"><tspan dy="0em" x="1460">ExternalVehicles</tspan></text>
<rect class="fleet box" x="1390" y="180" width="140" height="80" rx="3" ry="3"/><text class="fleet box" x="1460" y="220" dominant-baseline="middle" text-anchor="middle"><tspan dy="0em" x="1460">Trailers</tspan></text>
<rect class="fleet box" x="1390" y="270" width="140" height="80" rx="3" ry="3"/><text class="fleet box" x="1460" y="310" dominant-baseline="middle" text-anchor="middle"><tspan dy="0em" x="1460">Vehicles</tspan></text>
<rect class="fleet box" x="1390" y="360" width="140" height="80" rx="3" ry="3"/><text class="fleet box" x="1460" y="400" dominant-baseline="middle" text-anchor="middle"><tspan dy="0em" x="1460">VehicleEvents</tspan></text>
<rect class="fleet box" x="1390" y="450" width="140" height="80" rx="3" ry="3"/><text class="fleet box" x="1460" y="490" dominant-baseline="middle" text-anchor="middle"><tspan dy="-0.4em" x="1460">VehicleEvent</tspan><tspan dy="1em" x="1460">GeoSummaries</tspan></text>
<rect class="fleet box" x="1390" y="540" width="140" height="80" rx="3" ry="3"/><text class="fleet box" x="1460" y="580" dominant-baseline="middle" text-anchor="middle"><tspan dy="0em" x="1460">VehicleTrails</tspan></text>
<rect class="municipal heading" x="1550" y="20" width="160" height="1450" rx="3" ry="3"/><text class="municipal heading" x="1630" y="60" dominant-baseline="middle" text-anchor="middle"><tspan dy="0em" x="1630">Municipal</tspan></text>
<rect class="municipal box" x="1560" y="90" width="140" height="80" rx="3" ry="3"/><text class="municipal box" x="1630" y="130" dominant-baseline="middle" text-anchor="middle"><tspan dy="-0.4em" x="1630">MunicipalAccount</tspan><tspan dy="1em" x="1630">ChangeBatches</tspan></text>
<rect class="municipal box" x="1560" y="180" width="140" height="80" rx="3" ry="3"/><text class="municipal box" x="1630" y="220" dominant-baseline="middle" text-anchor="middle"><tspan dy="-0.4em" x="1630">MunicipalEvent</tspan><tspan dy="1em" x="1630">Details</tspan></text>
<rect class="scale heading" x="1720" y="20" width="160" height="1450" rx="3" ry="3"/><text class="scale heading" x="1800" y="60" dominant-baseline="middle" text-anchor="middle"><tspan dy="0em" x="1800">Scale</tspan></text>
<rect class="scale box" x="1730" y="90" width="140" height="80" rx="3" ry="3"/><text class="scale box" x="1800" y="130" dominant-baseline="middle" text-anchor="middle"><tspan dy="0em" x="1800">Weighings</tspan></text>
</svg>
