<svg class="svgbody" xmlns="http://www.w3.org/2000/svg" viewBox="0 0 1580 1310">
<style>
.svgbody { font-family:'Nunito Sans', sans-serif; font-size:13pt; background-color: white; }
text.box {
                font-size: 87%;
            fill: white; }

text.heading { fill: white; }
                rect.heading {
                stroke: none;
                fill: white; }

rect.heading { fill: #004457; stroke: none; }
rect.box { fill: #439028; }

rect.directory.heading,
rect.productCatalogue.heading,
rect.blobs.heading { fill: #77bbcf; }
</style>
<rect class="accounting heading" x="20" y="20" width="160" height="1270" rx="3" ry="3"/><text class="accounting heading" x="100" y="60" dominant-baseline="middle" text-anchor="middle"><tspan dy="0em" x="100">Accounting</tspan></text>
<rect class="accounting box" x="30" y="90" width="140" height="80" rx="3" ry="3"/><text class="accounting box" x="100" y="130" dominant-baseline="middle" text-anchor="middle"><tspan dy="0em" x="100">AccountCustomers</tspan></text>
<rect class="accounting box" x="30" y="180" width="140" height="80" rx="3" ry="3"/><text class="accounting box" x="100" y="220" dominant-baseline="middle" text-anchor="middle"><tspan dy="0em" x="100">Charges</tspan></text>
<rect class="accounting box" x="30" y="270" width="140" height="80" rx="3" ry="3"/><text class="accounting box" x="100" y="310" dominant-baseline="middle" text-anchor="middle"><tspan dy="0em" x="100">Contracts</tspan></text>
<rect class="accounting box" x="30" y="360" width="140" height="80" rx="3" ry="3"/><text class="accounting box" x="100" y="400" dominant-baseline="middle" text-anchor="middle"><tspan dy="0em" x="100">CreditNotes</tspan></text>
<rect class="accounting box" x="30" y="450" width="140" height="80" rx="3" ry="3"/><text class="accounting box" x="100" y="490" dominant-baseline="middle" text-anchor="middle"><tspan dy="0em" x="100">GlBatches</tspan></text>
<rect class="accounting box" x="30" y="540" width="140" height="80" rx="3" ry="3"/><text class="accounting box" x="100" y="580" dominant-baseline="middle" text-anchor="middle"><tspan dy="0em" x="100">GlExports</tspan></text>
<rect class="accounting box" x="30" y="630" width="140" height="80" rx="3" ry="3"/><text class="accounting box" x="100" y="670" dominant-baseline="middle" text-anchor="middle"><tspan dy="0em" x="100">GlJournals</tspan></text>
<rect class="accounting box" x="30" y="720" width="140" height="80" rx="3" ry="3"/><text class="accounting box" x="100" y="760" dominant-baseline="middle" text-anchor="middle"><tspan dy="0em" x="100">Invoices</tspan></text>
<rect class="accounting box" x="30" y="810" width="140" height="80" rx="3" ry="3"/><text class="accounting box" x="100" y="850" dominant-baseline="middle" text-anchor="middle"><tspan dy="0em" x="100">MasterAccounts</tspan></text>
<rect class="accounting box" x="30" y="900" width="140" height="80" rx="3" ry="3"/><text class="accounting box" x="100" y="940" dominant-baseline="middle" text-anchor="middle"><tspan dy="-0.4em" x="100">OrderCombination</tspan><tspan dy="1em" x="100">Groupings</tspan></text>
<rect class="accounting box" x="30" y="990" width="140" height="80" rx="3" ry="3"/><text class="accounting box" x="100" y="1030" dominant-baseline="middle" text-anchor="middle"><tspan dy="0em" x="100">Payments</tspan></text>
<rect class="accounting box" x="30" y="1080" width="140" height="80" rx="3" ry="3"/><text class="accounting box" x="100" y="1120" dominant-baseline="middle" text-anchor="middle"><tspan dy="-0.4em" x="100">PurchaseOrder</tspan><tspan dy="1em" x="100">NumberChains</tspan></text>
<rect class="accounting box" x="30" y="1170" width="140" height="80" rx="3" ry="3"/><text class="accounting box" x="100" y="1210" dominant-baseline="middle" text-anchor="middle"><tspan dy="0em" x="100">SupplierPayments</tspan></text>
<rect class="purchasing heading" x="190" y="20" width="160" height="1270" rx="3" ry="3"/><text class="purchasing heading" x="270" y="60" dominant-baseline="middle" text-anchor="middle"><tspan dy="0em" x="270">Purchasing</tspan></text>
<rect class="purchasing box" x="200" y="90" width="140" height="80" rx="3" ry="3"/><text class="purchasing box" x="270" y="130" dominant-baseline="middle" text-anchor="middle"><tspan dy="0em" x="270">AppliedCosts</tspan></text>
<rect class="purchasing box" x="200" y="180" width="140" height="80" rx="3" ry="3"/><text class="purchasing box" x="270" y="220" dominant-baseline="middle" text-anchor="middle"><tspan dy="0em" x="270">SupplierBills</tspan></text>
<rect class="directory heading" x="360" y="20" width="160" height="1270" rx="3" ry="3"/><text class="directory heading" x="440" y="60" dominant-baseline="middle" text-anchor="middle"><tspan dy="0em" x="440">Directory</tspan></text>
<rect class="directory box" x="370" y="90" width="140" height="80" rx="3" ry="3"/><text class="directory box" x="440" y="130" dominant-baseline="middle" text-anchor="middle"><tspan dy="0em" x="440">Contacts</tspan></text>
<rect class="directory box" x="370" y="180" width="140" height="80" rx="3" ry="3"/><text class="directory box" x="440" y="220" dominant-baseline="middle" text-anchor="middle"><tspan dy="0em" x="440">Containers</tspan></text>
<rect class="directory box" x="370" y="270" width="140" height="80" rx="3" ry="3"/><text class="directory box" x="440" y="310" dominant-baseline="middle" text-anchor="middle"><tspan dy="0em" x="440">Customers</tspan></text>
<rect class="directory box" x="370" y="360" width="140" height="80" rx="3" ry="3"/><text class="directory box" x="440" y="400" dominant-baseline="middle" text-anchor="middle"><tspan dy="0em" x="440">Locations</tspan></text>
<rect class="directory box" x="370" y="450" width="140" height="80" rx="3" ry="3"/><text class="directory box" x="440" y="490" dominant-baseline="middle" text-anchor="middle"><tspan dy="0em" x="440">Sites</tspan></text>
<rect class="directory box" x="370" y="540" width="140" height="80" rx="3" ry="3"/><text class="directory box" x="440" y="580" dominant-baseline="middle" text-anchor="middle"><tspan dy="0em" x="440">Suppliers</tspan></text>
<rect class="directory box" x="370" y="630" width="140" height="80" rx="3" ry="3"/><text class="directory box" x="440" y="670" dominant-baseline="middle" text-anchor="middle"><tspan dy="0em" x="440">SupplierSites</tspan></text>
<rect class="directory box" x="370" y="720" width="140" height="80" rx="3" ry="3"/><text class="directory box" x="440" y="760" dominant-baseline="middle" text-anchor="middle"><tspan dy="0em" x="440">Users</tspan></text>
<rect class="productCatalogue heading" x="530" y="20" width="160" height="1270" rx="3" ry="3"/><text class="productCatalogue heading" x="610" y="60" dominant-baseline="middle" text-anchor="middle"><tspan dy="0em" x="610">ProductCatalogue</tspan></text>
<rect class="productCatalogue box" x="540" y="90" width="140" height="80" rx="3" ry="3"/><text class="productCatalogue box" x="610" y="130" dominant-baseline="middle" text-anchor="middle"><tspan dy="0em" x="610">CostAgreements</tspan></text>
<rect class="productCatalogue box" x="540" y="180" width="140" height="80" rx="3" ry="3"/><text class="productCatalogue box" x="610" y="220" dominant-baseline="middle" text-anchor="middle"><tspan dy="0em" x="610">ServiceAgreements</tspan></text>
<rect class="blobs heading" x="700" y="20" width="160" height="1270" rx="3" ry="3"/><text class="blobs heading" x="780" y="60" dominant-baseline="middle" text-anchor="middle"><tspan dy="0em" x="780">Blobs</tspan></text>
<rect class="blobs box" x="710" y="90" width="140" height="80" rx="3" ry="3"/><text class="blobs box" x="780" y="130" dominant-baseline="middle" text-anchor="middle"><tspan dy="0em" x="780">CustomerBlobs</tspan></text>
<rect class="blobs box" x="710" y="180" width="140" height="80" rx="3" ry="3"/><text class="blobs box" x="780" y="220" dominant-baseline="middle" text-anchor="middle"><tspan dy="-0.4em" x="780">CustomerReport</tspan><tspan dy="1em" x="780">Blobs</tspan></text>
<rect class="blobs box" x="710" y="270" width="140" height="80" rx="3" ry="3"/><text class="blobs box" x="780" y="310" dominant-baseline="middle" text-anchor="middle"><tspan dy="-1em" x="780">CustomerSite</tspan><tspan dy="1em" x="780">HealthAnd</tspan><tspan dy="1em" x="780">SafetyBlobs</tspan></text>
<rect class="fleet heading" x="870" y="20" width="160" height="1270" rx="3" ry="3"/><text class="fleet heading" x="950" y="60" dominant-baseline="middle" text-anchor="middle"><tspan dy="0em" x="950">Fleet</tspan></text>
<rect class="fleet box" x="880" y="90" width="140" height="80" rx="3" ry="3"/><text class="fleet box" x="950" y="130" dominant-baseline="middle" text-anchor="middle"><tspan dy="0em" x="950">ExternalVehicles</tspan></text>
<rect class="fleet box" x="880" y="180" width="140" height="80" rx="3" ry="3"/><text class="fleet box" x="950" y="220" dominant-baseline="middle" text-anchor="middle"><tspan dy="0em" x="950">Trailers</tspan></text>
<rect class="fleet box" x="880" y="270" width="140" height="80" rx="3" ry="3"/><text class="fleet box" x="950" y="310" dominant-baseline="middle" text-anchor="middle"><tspan dy="0em" x="950">Vehicles</tspan></text>
<rect class="fleet box" x="880" y="360" width="140" height="80" rx="3" ry="3"/><text class="fleet box" x="950" y="400" dominant-baseline="middle" text-anchor="middle"><tspan dy="0em" x="950">VehicleEvents</tspan></text>
<rect class="fleet box" x="880" y="450" width="140" height="80" rx="3" ry="3"/><text class="fleet box" x="950" y="490" dominant-baseline="middle" text-anchor="middle"><tspan dy="-0.4em" x="950">VehicleEvent</tspan><tspan dy="1em" x="950">GeoSummaries</tspan></text>
<rect class="transport heading" x="1040" y="20" width="160" height="1270" rx="3" ry="3"/><text class="transport heading" x="1120" y="60" dominant-baseline="middle" text-anchor="middle"><tspan dy="0em" x="1120">Transport</tspan></text>
<rect class="transport box" x="1050" y="90" width="140" height="80" rx="3" ry="3"/><text class="transport box" x="1120" y="130" dominant-baseline="middle" text-anchor="middle"><tspan dy="0em" x="1120">Jobs</tspan></text>
<rect class="transport box" x="1050" y="180" width="140" height="80" rx="3" ry="3"/><text class="transport box" x="1120" y="220" dominant-baseline="middle" text-anchor="middle"><tspan dy="0em" x="1120">LiftEvents</tspan></text>
<rect class="transport box" x="1050" y="270" width="140" height="80" rx="3" ry="3"/><text class="transport box" x="1120" y="310" dominant-baseline="middle" text-anchor="middle"><tspan dy="-0.4em" x="1120">OneOff</tspan><tspan dy="1em" x="1120">Actions</tspan></text>
<rect class="transport box" x="1050" y="360" width="140" height="80" rx="3" ry="3"/><text class="transport box" x="1120" y="400" dominant-baseline="middle" text-anchor="middle"><tspan dy="0em" x="1120">Orders</tspan></text>
<rect class="transport box" x="1050" y="450" width="140" height="80" rx="3" ry="3"/><text class="transport box" x="1120" y="490" dominant-baseline="middle" text-anchor="middle"><tspan dy="0em" x="1120">Routes</tspan></text>
<rect class="transport box" x="1050" y="540" width="140" height="80" rx="3" ry="3"/><text class="transport box" x="1120" y="580" dominant-baseline="middle" text-anchor="middle"><tspan dy="0em" x="1120">RouteAssignments</tspan></text>
<rect class="transport box" x="1050" y="630" width="140" height="80" rx="3" ry="3"/><text class="transport box" x="1120" y="670" dominant-baseline="middle" text-anchor="middle"><tspan dy="0em" x="1120">RouteTemplates</tspan></text>
<rect class="transport box" x="1050" y="720" width="140" height="80" rx="3" ry="3"/><text class="transport box" x="1120" y="760" dominant-baseline="middle" text-anchor="middle"><tspan dy="0em" x="1120">RouteVisits</tspan></text>
<rect class="transport box" x="1050" y="810" width="140" height="80" rx="3" ry="3"/><text class="transport box" x="1120" y="850" dominant-baseline="middle" text-anchor="middle"><tspan dy="-0.4em" x="1120">RouteVisit</tspan><tspan dy="1em" x="1120">Jobs</tspan></text>
<rect class="transport box" x="1050" y="900" width="140" height="80" rx="3" ry="3"/><text class="transport box" x="1120" y="940" dominant-baseline="middle" text-anchor="middle"><tspan dy="0em" x="1120">Schedules</tspan></text>
<rect class="comms heading" x="1210" y="20" width="160" height="1270" rx="3" ry="3"/><text class="comms heading" x="1290" y="60" dominant-baseline="middle" text-anchor="middle"><tspan dy="0em" x="1290">Comms</tspan></text>
<rect class="comms box" x="1220" y="90" width="140" height="80" rx="3" ry="3"/><text class="comms box" x="1290" y="130" dominant-baseline="middle" text-anchor="middle"><tspan dy="0em" x="1290">Notifications</tspan></text>
<rect class="scale heading" x="1380" y="20" width="160" height="1270" rx="3" ry="3"/><text class="scale heading" x="1460" y="60" dominant-baseline="middle" text-anchor="middle"><tspan dy="0em" x="1460">Scale</tspan></text>
<rect class="scale box" x="1390" y="90" width="140" height="80" rx="3" ry="3"/><text class="scale box" x="1460" y="130" dominant-baseline="middle" text-anchor="middle"><tspan dy="0em" x="1460">Weighings</tspan></text>
</svg>
